<svg xmlns="http://www.w3.org/2000/svg" xmlns:xlink="http://www.w3.org/1999/xlink" viewBox="0 0 512 512" xmlns:v="https://vecta.io/nano"><path d="M0 .2349999994h511.5299987793v511.5299987793H0z" fill="#f5f5f5"/><path d="M0 .2349999994h512v39.34000015259H0zm0 157.39500488341h512v39.34000015259H0zm0-78.69500732422h512v39.34000015259H0zm0 157.38500976563h512v39.34000015259H0zm0 157.38998413086h512v39.34000015259H0zm0 78.70001220703h512v39.34000015259H0zm0-157.39001464844h512v39.34000015259H0z" fill="#ff4b55"/><path d="M0 .2349999994h275.44000244141v275.44000244141H0z" fill="#41479b"/><g fill="#f5f5f5"><use xlink:href="#B"/><use xlink:href="#C"/><path d="M35.219 132.78l2.122 6.364 6.708.052c.868.007 1.229 1.115.53 1.632l-5.396 3.985 2.023 6.396c.262.828-.68 1.513-1.388 1.008l-5.458-3.901-5.458 3.901c-.706.506-1.649-.18-1.388-1.008l2.023-6.396-5.396-3.985c-.698-.516-.339-1.625.53-1.632l6.708-.052 2.122-6.364c.278-.824 1.444-.824 1.718 0z"/><use xlink:href="#B" y="166.062"/><path d="M35.219 236.102l2.122 6.364 6.708.052c.868.007 1.229 1.115.53 1.631l-5.396 3.985 2.023 6.396c.262.828-.68 1.513-1.388 1.008l-5.458-3.901-5.458 3.901c-.706.506-1.649-.18-1.388-1.008l2.023-6.396-5.396-3.985c-.698-.516-.339-1.625.53-1.631l6.708-.052 2.122-6.364c.278-.824 1.444-.824 1.718 0zM61.058 45.953l2.122 6.364 6.708.052c.868.007 1.229 1.115.53 1.631l-5.396 3.985 2.023 6.396c.262.828-.68 1.513-1.388 1.008l-5.458-3.901-5.458 3.901c-.706.506-1.649-.18-1.388-1.008l2.023-6.396L49.98 54c-.698-.516-.339-1.624.53-1.631l6.708-.052 2.122-6.364c.278-.824 1.444-.824 1.718 0z"/><use xlink:href="#B" x="25.839" y="84.018"/><path d="M61.058 160.771l2.122 6.364 6.708.052c.868.007 1.229 1.115.53 1.631l-5.396 3.985 2.023 6.396c.262.828-.68 1.513-1.388 1.008l-5.458-3.901-5.458 3.901c-.706.506-1.649-.18-1.388-1.008l2.023-6.396-5.396-3.985c-.698-.516-.339-1.624.53-1.631l6.708-.052 2.122-6.364c.278-.823 1.444-.823 1.718 0z"/><use xlink:href="#C" x="25.839" y="137.105"/><use xlink:href="#D"/><use xlink:href="#E"/><use xlink:href="#F"/><path d="M86.898 186.876l2.122 6.364 6.708.052c.868.007 1.229 1.115.53 1.631l-5.396 3.985 2.023 6.396c.262.828-.68 1.513-1.388 1.008l-5.456-3.902-5.458 3.901c-.706.506-1.649-.18-1.388-1.008l2.023-6.396-5.396-3.985c-.698-.516-.339-1.624.53-1.631l6.708-.052 2.122-6.364c.276-.823 1.441-.823 1.716.001z"/><use xlink:href="#G"/><path d="M112.737 45.953l2.122 6.364 6.708.052c.868.007 1.229 1.115.53 1.631l-5.396 3.985 2.023 6.396c.262.828-.68 1.513-1.388 1.008l-5.458-3.901-5.458 3.901c-.706.506-1.649-.18-1.388-1.008l2.023-6.396L101.659 54c-.698-.516-.339-1.624.53-1.631l6.711-.052 2.122-6.364c.275-.824 1.44-.824 1.715 0z"/><use xlink:href="#D" x="25.839" y="84.018"/><path d="M112.737 160.771l2.122 6.364 6.708.052c.868.007 1.229 1.115.53 1.631l-5.396 3.985 2.023 6.396c.262.828-.68 1.513-1.388 1.008l-5.458-3.901-5.458 3.901c-.706.506-1.649-.18-1.388-1.008l2.023-6.396-5.396-3.985c-.698-.516-.339-1.624.53-1.631l6.708-.052 2.122-6.364c.278-.823 1.443-.823 1.718 0z"/><use xlink:href="#E" x="25.839" y="137.105"/><use xlink:href="#D" x="51.678"/><use xlink:href="#E" x="51.678"/><use xlink:href="#F" x="51.678"/><use xlink:href="#D" x="51.678" y="166.062"/><use xlink:href="#G" x="51.678"/><path d="M164.415 45.953l2.122 6.364 6.708.052c.868.007 1.229 1.115.53 1.631l-5.396 3.985 2.023 6.396c.262.828-.68 1.513-1.388 1.008l-5.458-3.901-5.458 3.901c-.706.506-1.649-.18-1.388-1.008l2.023-6.396L153.337 54c-.698-.516-.339-1.624.529-1.631l6.708-.052 2.122-6.364c.279-.824 1.444-.824 1.719 0zm0 58.879l2.122 6.364 6.708.052c.868.007 1.229 1.115.53 1.631l-5.396 3.985 2.023 6.396c.262.828-.68 1.513-1.388 1.008l-5.458-3.901-5.458 3.901c-.706.506-1.649-.18-1.388-1.008l2.023-6.396-5.396-3.985c-.698-.516-.339-1.624.529-1.631l6.708-.052 2.122-6.364c.279-.824 1.444-.824 1.719 0zm0 55.939l2.122 6.364 6.708.052c.868.007 1.229 1.115.53 1.631l-5.396 3.985 2.023 6.396c.262.828-.68 1.513-1.388 1.008l-5.458-3.901-5.458 3.901c-.706.506-1.649-.18-1.388-1.008l2.023-6.396-5.396-3.985c-.698-.516-.339-1.624.529-1.631l6.708-.052 2.122-6.364c.279-.823 1.444-.823 1.719 0zm0 50.236l2.122 6.364 6.708.052c.868.007 1.229 1.115.53 1.631l-5.396 3.985 2.023 6.396c.262.828-.68 1.513-1.388 1.008l-5.458-3.901-5.458 3.901c-.706.506-1.649-.18-1.388-1.008l2.023-6.396-5.396-3.985c-.698-.516-.339-1.624.529-1.631l6.708-.052 2.122-6.364c.279-.825 1.444-.825 1.719 0z"/><use xlink:href="#D" x="103.356"/><use xlink:href="#E" x="103.356"/><use xlink:href="#F" x="103.356"/><use xlink:href="#D" x="103.356" y="166.062"/><use xlink:href="#G" x="103.356"/><path d="M216.094 45.953l2.122 6.364 6.708.052c.868.007 1.229 1.115.53 1.631l-5.396 3.985 2.023 6.396c.262.828-.68 1.513-1.388 1.008l-5.458-3.901-5.458 3.901c-.706.506-1.649-.18-1.388-1.008l2.023-6.396L205.016 54c-.698-.516-.339-1.624.53-1.631l6.708-.052 2.122-6.364c.277-.824 1.443-.824 1.718 0z"/><use xlink:href="#H"/><path d="M216.094 160.771l2.122 6.364 6.708.052c.868.007 1.229 1.115.53 1.631l-5.396 3.985 2.023 6.396c.262.828-.68 1.513-1.388 1.008l-5.458-3.901-5.458 3.901c-.706.506-1.649-.18-1.388-1.008l2.023-6.396-5.396-3.985c-.698-.516-.339-1.624.53-1.631l6.708-.052 2.122-6.364c.277-.823 1.443-.823 1.718 0z"/><use xlink:href="#I"/><use xlink:href="#H" x="25.839" y="-84.018"/><use xlink:href="#I" x="25.839" y="-137.105"/><path d="M241.933 132.78l2.122 6.364 6.708.052c.868.007 1.229 1.115.53 1.632l-5.396 3.985 2.023 6.396c.262.828-.68 1.513-1.388 1.008l-5.458-3.901-5.458 3.901c-.706.506-1.649-.18-1.388-1.008l2.023-6.396-5.396-3.985c-.698-.516-.339-1.625.53-1.632l6.708-.052 2.122-6.364c.277-.824 1.443-.824 1.718 0z"/><use xlink:href="#H" x="25.839" y="82.044"/><path d="M241.933 236.102l2.122 6.364 6.708.052c.868.007 1.229 1.115.53 1.631l-5.396 3.985 2.023 6.396c.262.828-.68 1.513-1.388 1.008l-5.458-3.901-5.458 3.901c-.706.506-1.649-.18-1.388-1.008l2.023-6.396-5.396-3.985c-.698-.516-.339-1.625.53-1.631l6.708-.052 2.122-6.364c.277-.824 1.443-.824 1.718 0z"/></g><defs ><path id="B" d="M35.219 20.814l2.122 6.364 6.708.052c.868.007 1.229 1.115.53 1.631l-5.396 3.985 2.023 6.396c.262.828-.68 1.513-1.388 1.008l-5.458-3.901-5.458 3.901c-.706.506-1.649-.18-1.388-1.008l2.023-6.396-5.396-3.985c-.698-.516-.339-1.624.53-1.631l6.708-.052 2.122-6.364c.278-.824 1.444-.824 1.718 0z"/><path id="C" d="M35.219 73.902l2.122 6.364 6.708.052c.868.007 1.229 1.115.53 1.631l-5.396 3.985 2.023 6.396c.262.828-.68 1.513-1.388 1.008l-5.458-3.901-5.458 3.901c-.706.506-1.649-.18-1.388-1.008l2.023-6.396-5.396-3.985c-.698-.516-.339-1.624.53-1.631l6.708-.052 2.122-6.364c.278-.825 1.444-.825 1.718 0z"/><path id="D" d="M86.898 20.814l2.122 6.364 6.708.052c.868.007 1.229 1.115.53 1.631l-5.396 3.985 2.023 6.396c.262.828-.68 1.513-1.388 1.008l-5.458-3.901-5.458 3.901c-.706.506-1.649-.18-1.388-1.008l2.023-6.396-5.396-3.985c-.698-.516-.339-1.624.53-1.631l6.708-.052 2.122-6.364c.278-.824 1.443-.824 1.718 0z"/><path id="E" d="M86.898 73.902l2.122 6.364 6.708.052c.868.007 1.229 1.115.53 1.631l-5.396 3.985 2.023 6.396c.262.828-.68 1.513-1.388 1.008l-5.458-3.901-5.458 3.901c-.706.506-1.649-.18-1.388-1.008l2.023-6.396-5.396-3.985c-.698-.516-.339-1.624.53-1.631l6.708-.052 2.122-6.364c.278-.825 1.443-.825 1.718 0z"/><path id="F" d="M86.898 132.78l2.122 6.364 6.708.052c.868.007 1.229 1.115.53 1.632l-5.396 3.985 2.023 6.396c.262.828-.68 1.513-1.388 1.008l-5.458-3.901-5.458 3.901c-.706.506-1.649-.18-1.388-1.008l2.023-6.396-5.396-3.985c-.698-.516-.339-1.625.53-1.632l6.708-.052 2.122-6.364c.278-.824 1.443-.824 1.718 0z"/><path id="G" d="M86.898 236.102l2.122 6.364 6.708.052c.868.007 1.229 1.115.53 1.631l-5.396 3.985 2.023 6.396c.262.828-.68 1.513-1.388 1.008l-5.458-3.901-5.458 3.901c-.706.506-1.649-.18-1.388-1.008l2.023-6.396-5.396-3.985c-.698-.516-.339-1.625.53-1.631l6.708-.052 2.122-6.364c.278-.824 1.443-.824 1.718 0z"/><path id="H" d="M216.094 104.832l2.122 6.364 6.708.052c.868.007 1.229 1.115.53 1.631l-5.396 3.985 2.023 6.396c.262.828-.68 1.513-1.388 1.008l-5.458-3.901-5.458 3.901c-.706.506-1.649-.18-1.388-1.008l2.023-6.396-5.396-3.985c-.698-.516-.339-1.624.53-1.631l6.708-.052 2.122-6.364c.277-.824 1.443-.824 1.718 0z"/><path id="I" d="M216.094 211.007l2.122 6.364 6.708.052c.868.007 1.229 1.115.53 1.631l-5.396 3.985 2.023 6.396c.262.828-.68 1.513-1.388 1.008l-5.458-3.901-5.458 3.901c-.706.506-1.649-.18-1.388-1.008l2.023-6.396-5.396-3.985c-.698-.516-.339-1.624.53-1.631l6.708-.052 2.122-6.364c.277-.825 1.443-.825 1.718 0z"/></defs></svg>