<svg id="Layer_1" data-name="Layer 1" xmlns="http://www.w3.org/2000/svg" xmlns:xlink="http://www.w3.org/1999/xlink" viewBox="0 0 244.01 231.82"><defs><style>.cls-1,.cls-21{fill:none;}.cls-2{clip-path:url(#clip-path);}.cls-3{fill:#71c900;}.cls-10,.cls-12,.cls-13,.cls-14,.cls-15,.cls-16,.cls-17,.cls-18,.cls-19,.cls-20,.cls-22,.cls-24,.cls-26,.cls-3,.cls-6,.cls-8,.cls-9{fill-rule:evenodd;}.cls-4,.cls-6{fill:#57a100;}.cls-5{fill:#3f3643;}.cls-7,.cls-9{fill:#54a300;}.cls-8{fill:#6ecb00;}.cls-10{fill:#f7f7f7;}.cls-11{fill:#3699ff;}.cls-12{fill:#f5b7b3;}.cls-13{fill:#dd9995;}.cls-14{fill:#b2b2b2;}.cls-15{fill:#f4b7b4;}.cls-16{fill:#8e614f;}.cls-17{fill:#aa7762;}.cls-18{fill:#fff;}.cls-19{fill:#151e5c;stroke:#151e5c;}.cls-20{fill:#141b5e;}.cls-21{stroke:#0a0f43;}.cls-22{fill:#211177;}.cls-23{fill:#0042ad;}.cls-24{fill:#f64e60;}.cls-25{fill:#1bc5bd;}.cls-26{fill:#ffa801;}.cls-27{fill:#8950fc;}.cls-28{fill:#ffa800;}</style><clipPath id="clip-path" transform="translate(-0.14 -15.69)"><rect class="cls-1" width="245" height="245"/></clipPath></defs><g class="cls-2"><path class="cls-3" d="M244.15,246.45q-9-18.09-23.06-12.34t-17-8.26c-.82-3.34-1.76-5.53-2.83-6.59-7.28-7.24-17.74-5.81-27.86,2.87q-10.87,9-12.39,24.32Z" transform="translate(-0.14 -15.69)"/><path class="cls-4" d="M188.65,222.54c-2.43,1.28-6.5-1.6-9.08-6.45s-2.71-9.83-.28-11.12,6.5,1.6,9.08,6.45S191.08,221.25,188.65,222.54Z" transform="translate(-0.14 -15.69)"/><path class="cls-5" d="M183.6,212.44a62.29,62.29,0,0,1,9.09,27.37l-.29,0a61.86,61.86,0,0,0-9-27.24Z" transform="translate(-0.14 -15.69)"/><path class="cls-4" d="M195.07,210.52c-2.72.39-5.55-3.71-6.32-9.15s.82-10.16,3.55-10.54,5.55,3.71,6.32,9.15S197.8,210.14,195.07,210.52Z" transform="translate(-0.14 -15.69)"/><path class="cls-5" d="M194.07,200.18a186,186,0,0,1,1.09,18.58q0,7.31-1.28,21.9l-.28,0q1.25-14.59,1.28-21.88a185.43,185.43,0,0,0-1.09-18.55Z" transform="translate(-0.14 -15.69)"/><path class="cls-4" d="M205.62,202.66c-2.22-1.62-1.41-6.53,1.83-11s7.66-6.74,9.89-5.13,1.41,6.53-1.83,11S207.85,204.27,205.62,202.66Z" transform="translate(-0.14 -15.69)"/><path class="cls-5" d="M212.82,193.41q-14,15.33-18.4,47.26l-.28,0q4.4-32,18.47-47.41Z" transform="translate(-0.14 -15.69)"/><path class="cls-4" d="M203.53,225c-1.91-2-.25-6.67,3.71-10.48s8.72-5.31,10.63-3.33.25,6.67-3.71,10.48S205.45,227,203.53,225Z" transform="translate(-0.14 -15.69)"/><path class="cls-5" d="M211.57,217.09q-11.92,10.29-15.48,23.68l-.27-.07q3.57-13.48,15.57-23.82Z" transform="translate(-0.14 -15.69)"/><path class="cls-6" d="M213.4,246.4q-7.65-15.17-16.61-9.86t-11.58-2.23c-1-2.32-2-3.8-3-4.46-4.76-3.18-10.85-2.22-15.24,2.13q-8.64,8.58-11.94,14.47Z" transform="translate(-0.14 -15.69)"/><path class="cls-7" d="M21.23,205c2.23-1.61,1.41-6.52-1.83-11s-7.66-6.73-9.89-5.12-1.4,6.53,1.83,11S19,206.66,21.23,205Z" transform="translate(-0.14 -15.69)"/><path class="cls-5" d="M14,195.8q14,15.31,18.4,47.26l.28,0q-4.38-32-18.47-47.41Z" transform="translate(-0.14 -15.69)"/><path class="cls-7" d="M23.32,227.43c1.91-2,.25-6.67-3.71-10.49s-8.72-5.3-10.63-3.33-.25,6.67,3.71,10.49S21.41,229.41,23.32,227.43Z" transform="translate(-0.14 -15.69)"/><path class="cls-5" d="M15.23,219.48q11.94,10.29,15.48,23.68l.28-.07q-3.57-13.49-15.57-23.83Z" transform="translate(-0.14 -15.69)"/><path class="cls-8" d="M.14,246.45H83.28c-.46-4.63-6.52-18-16-22.74-11.29-5.65-21.4,5-23.42,7.8-6.55,9.13-11.32,6.45-20.71,2.62S6.12,234.41.14,246.45Z" transform="translate(-0.14 -15.69)"/><path class="cls-7" d="M52.05,215.54c-2.43,1.29-6.5-1.59-9.08-6.44s-2.71-9.83-.28-11.12,6.49,1.6,9.08,6.45S54.48,214.26,52.05,215.54Z" transform="translate(-0.14 -15.69)"/><path class="cls-5" d="M47,205.45a62.24,62.24,0,0,1,9.09,27.37l-.29,0a61.86,61.86,0,0,0-9-27.24Z" transform="translate(-0.14 -15.69)"/><path class="cls-7" d="M66.93,218.05c-1.91-2-.25-6.67,3.71-10.48s8.72-5.31,10.63-3.34.25,6.67-3.71,10.49S68.85,220,66.93,218.05Z" transform="translate(-0.14 -15.69)"/><path class="cls-5" d="M75,210.1Q63,220.39,59.49,233.78l-.27-.07q3.57-13.49,15.57-23.82Z" transform="translate(-0.14 -15.69)"/><path class="cls-9" d="M94.1,246.4q-6.69-11.51-15.64-6.21c-9,5.3-8.79-1.38-15.38-8.71-3-3.38-11-3.85-15.41.5Q39,240.56,35.73,246.45Z" transform="translate(-0.14 -15.69)"/><path class="cls-10" d="M102.73,92.18,89.92,95.11,88.51,71.34,79,66.56l1.79,36.69a3.13,3.13,0,0,0,3,3l19.3.65Z" transform="translate(-0.14 -15.69)"/><path class="cls-11" d="M90.55,63.46a30,30,0,0,1,42.23-2.87.46.46,0,0,1,.07.07L147,73a30,30,0,1,1-39.49,45.11l-7.79-6.81a3.15,3.15,0,0,1,1.73-5.51,36.36,36.36,0,0,0,10.25-2.6,3.17,3.17,0,0,1,3.32.53l2.74,2.4a14.2,14.2,0,1,0,18.85-21.24l-14.1-12.35a14.2,14.2,0,0,0-20,1.33A14.5,14.5,0,0,0,100.87,76a3.19,3.19,0,0,1-2.39,1.54,7.86,7.86,0,0,1-6-1.92L88,71.75a3.16,3.16,0,0,1-.61-4,30.32,30.32,0,0,1,3.12-4.27ZM61,37.57a30,30,0,0,0,2.81,42.3l14.1,12.35.08.06a30,30,0,0,0,42.22-2.87,28.92,28.92,0,0,0,3.12-4.26,3.16,3.16,0,0,0-.61-4l-4.42-3.87a7.85,7.85,0,0,0-6-1.91,3.15,3.15,0,0,0-2.39,1.53,14.19,14.19,0,0,1-21.59,3.48L74.17,68A14.2,14.2,0,1,1,93,46.75l2.74,2.41a3.17,3.17,0,0,0,3.32.52,36.69,36.69,0,0,1,10.25-2.59,3.15,3.15,0,0,0,1.73-5.51l-7.78-6.82A30,30,0,0,0,61,37.57Z" transform="translate(-0.14 -15.69)"/><path class="cls-12" d="M112.14,91.93l-2.89-12.52.75-5.3c.42-3-2.35-10.32-10.86-7.37-5,1.74-7.22,5.68-6.08,11,.15.69,2.27,7.81,9.52,4.49l.35,14.22Z" transform="translate(-0.14 -15.69)"/><path class="cls-13" d="M102.58,82.19c1.85-.9,2.89-2,3.1-3.41a19,19,0,0,1-3,8.93Z" transform="translate(-0.14 -15.69)"/><path class="cls-14" d="M69.71,130.31q-2.14-8.31,5.48-12.65l.87,3.66-3.63,7.82Z" transform="translate(-0.14 -15.69)"/><path class="cls-14" d="M149.09,141q-14.22,18.75-46.39,5,16.41-7.89,24.66-9.35,5.88-1,17.74,1.83Z" transform="translate(-0.14 -15.69)"/><path class="cls-15" d="M75.38,118.29q-5.67-6.51-11-6.5c-.45.62-.2,1.28.76,2s2.19,1.69,3.68,3l-4.34-.94a2.28,2.28,0,0,1-1.77-1.9c-.23-1.63-.53-2.44-.89-2.44-.7,0-1.43,2.29-.84,4a29.77,29.77,0,0,0,1.6,3.67,2,2,0,0,0,1,.93l11,4.77a8,8,0,0,0,1.59-3.37A7.84,7.84,0,0,0,75.38,118.29Z" transform="translate(-0.14 -15.69)"/><path class="cls-16" d="M105,128.19l-6.27,53.46,8.54,58H118l-2.48-53.46,22-54.42Z" transform="translate(-0.14 -15.69)"/><path class="cls-17" d="M137.51,131.78l7.59,57.85,17.23,49.67-10.59.36-24-50-15-50.81Z" transform="translate(-0.14 -15.69)"/><path class="cls-18" d="M110.26,83.81a17.65,17.65,0,0,1-4.2,4.9c-1.3.91-2.4,1-3.31.36Q97.22,98.18,98,106.45c.51,5.51.77,8.89.77,10.12q-1.4.84-6.93,1.09t-16.63,0a15.39,15.39,0,0,1-1,6.3,27.28,27.28,0,0,1-4.53,6.35q28.18,1.89,31.4,1.47a114.27,114.27,0,0,1,1.57,13.82c0,1.78,5.26,3.64,12.82,0s21.37-12.7,33.6-4.61q-14.84-15.74-18.41-22.09c-5.51-9.84-7.84-17.65-9.06-20.41Q119.63,94,110.26,83.81Z" transform="translate(-0.14 -15.69)"/><path class="cls-19" d="M107.29,239.66l-12.54,5-1,2.32h27l-2.8-7.35Z" transform="translate(-0.14 -15.69)"/><path class="cls-20" d="M151.74,239.66l10.59-.36L165,247h-26.5l.68-2.64Z" transform="translate(-0.14 -15.69)"/><path class="cls-21" d="M94.62,76.23a3.27,3.27,0,0,0,1.53.35,1.84,1.84,0,0,0,1.21-.46" transform="translate(-0.14 -15.69)"/><path class="cls-22" d="M88.63,66.32c.08-1,2.68-7.85,5.58-7.21s2.3,1.4,5.43,3.36c2.14,1.34,7.24,1.53,9,3,3.58,3.06,3.58,13.31.72,14.27-3.21-1.69-4.16-3.37-2.88-5,.11-.16.18-.27.22-.34.74-1.24-.2-2.13-1.54-1.46s-2,.37-2.13-.93l-1,.2a26.9,26.9,0,0,1-5,.54C92.49,72.5,88.28,70.66,88.63,66.32Z" transform="translate(-0.14 -15.69)"/><path class="cls-23" d="M100.92,132.46c11.72-.88,16.64-8.14,14.72-21.61l-.57.08c1.89,13.17-2.83,20.11-14.19,21Z" transform="translate(-0.14 -15.69)"/><path class="cls-24" d="M62.16,106.06l2,7.7-12.63-7.7H33.74a2.28,2.28,0,0,1-2.28-2.27V86.45a2.28,2.28,0,0,1,2.28-2.27h31.6a2.28,2.28,0,0,1,2.28,2.27v17.34a2.28,2.28,0,0,1-2.28,2.27Z" transform="translate(-0.14 -15.69)"/><path class="cls-25" d="M143.44,35.59V24.88h9.45V15.69h-1.42v7.77H142V34.17H132.3V46.62h1.43v-11Z" transform="translate(-0.14 -15.69)"/><path class="cls-11" d="M149.76,129.51a13.36,13.36,0,1,0-13.38-13.36A13.38,13.38,0,0,0,149.76,129.51Zm0-1.43a11.94,11.94,0,1,1,12-11.93A11.95,11.95,0,0,1,149.76,128.08Z" transform="translate(-0.14 -15.69)"/><path class="cls-26" d="M56.23,49.94l-13.95,7V43Z" transform="translate(-0.14 -15.69)"/><path class="cls-27" d="M41.53,170V159.3H32.08v-9.19H33.5v7.77H43v10.71h9.71V181H51.25V170Z" transform="translate(-0.14 -15.69)"/><path class="cls-28" d="M169.26,52.92h16V68.83h-16Z" transform="translate(-0.14 -15.69)"/><path class="cls-28" d="M179.51,166.31a3.7,3.7,0,1,1,3.71-3.7A3.7,3.7,0,0,1,179.51,166.31Z" transform="translate(-0.14 -15.69)"/></g></svg>